<svg xmlns="http://www.w3.org/2000/svg" viewBox="0 0 96 92.7"><path d="M44.2 22c-1.8 0-3.2 1.4-3.2 3.2v25.5c0 .9.4 1.9 1.2 2.5l16 12.7c.5.5 1.2.7 1.9.7.9 0 1.8-.4 2.6-1.3 1.1-1.4.9-3.4-.5-4.5L47.4 49.1V25.2c0-1.8-1.4-3.2-3.2-3.2z"/><path d="M84.7 38.5c-1.6.2-2.7 1.8-2.4 3.4.3 2.1.5 4.3.5 6.5 0 21.2-17.2 38.4-38.4 38.4S6 69.5 6 48.4C6 27.2 23.2 10 44.4 10c3.4 0 6.8.4 10 1.3 1.6.4 3.3-.5 3.7-2.1.4-1.6-.5-3.3-2.1-3.7-3.8-1-7.7-1.5-11.6-1.5C19.9 4 0 23.9 0 48.4c.1 24.5 19.9 44.3 44.4 44.3 24.4 0 44.3-19.9 44.3-44.3 0-2.5-.2-5-.6-7.5-.2-1.6-1.8-2.7-3.4-2.4z"/><path d="M77.5 0C67.3 0 59 8.2 59 18.4s8.3 18.5 18.5 18.5S96 28.6 96 18.4 87.7 0 77.5 0zm9.3 13.9l-11.5 9.6c-.6.5-1.5.4-2.1-.2l-5-5.6c-.5-.6-.5-1.5.1-2.1l.2-.1c.6-.5 1.5-.5 2.1.1l3.7 4.1c.1.2.4.2.5 0l9.9-8.3c.6-.5 1.6-.4 2.1.2l.2.2c.5.7.4 1.6-.2 2.1z"/></svg>