<svg xmlns="http://www.w3.org/2000/svg" viewBox="0 0 73.6 90.2"><path d="M39.5 24h-4.7C28.3 24 23 29.3 23 35.8v3.8c0 6.5 5.3 11.8 11.8 11.8h4.7c6.5 0 11.8-5.3 11.8-11.8v-3.8c.1-6.5-5.2-11.8-11.8-11.8zm10.9 15.7c0 6-4.9 10.9-10.9 10.9h-4.7c-6 0-10.9-4.9-10.9-10.9v-3.8c0-6 4.9-10.9 10.9-10.9h4.7c6 0 10.9 4.9 10.9 10.9v3.8z"/><path d="M40 19h-5.5C25.4 19 18 26.4 18 35.5v38.1c0 9.1 7.4 16.5 16.5 16.5H40c9.1 0 16.5-7.4 16.5-16.5V35.5C56.5 26.4 49.1 19 40 19zm0 69.3h-5.5c-8.1 0-14.7-6.6-14.7-14.7v-8.5l29.7 19.7c-2.6 2.3-6 3.5-9.5 3.5zm10.2-4.1L19.9 64V47.6l34.9 26.2c-.1 3.9-1.7 7.7-4.6 10.4zm4.5-11.5L41.8 63l12.9-14.9v24.6zm0-26.1L41.1 62.4l-21.2-16V35.5c0-8.1 6.6-14.7 14.7-14.7H40c8.1 0 14.7 6.6 14.7 14.7v11.1z"/><path d="M40.9 33.3s.1 0 0 0c1.2 0 2.1-.9 2.1-2V31h-.7v.3c0 .7-.6 1.3-1.3 1.3-.7 0-1.3-.6-1.3-1.3V31H39v.3c0 .9.5 1.6 1.3 1.9-.8-.1-1.7-.2-2.6-.2-4.8 0-8.7 1.9-8.7 6.7 0 4.8 3.9 7 8.7 7 4.8 0 8.7-2.2 8.7-7-.1-3.7-2.3-5.6-5.5-6.4zm.4 11.5c-.8.6-2.3-.2-3.6-.1-1.4-.1-2.8.7-3.6.1-.9-.5.3-4.5 3.6-4.6 3.3.1 4.5 4.1 3.6 4.6zM18.3 15.6l-5.2-5.2c-.6-.6-1.7-.6-2.3 0l-.4.4c-.6.6-.6 1.7 0 2.3l5.2 5.2c.6.6 1.7.6 2.3 0l.4-.4c.7-.6.7-1.6 0-2.3zM8.9 35H1.6c-.9 0-1.6.7-1.6 1.6v.5c0 .9.7 1.6 1.6 1.6h7.3c.9 0 1.6-.7 1.6-1.6v-.5c.1-.9-.7-1.6-1.6-1.6zM36.6 10.6h.5c.9 0 1.6-.7 1.6-1.6V1.6C38.7.7 38 0 37.1 0h-.5c-.9 0-1.6.7-1.6 1.6v7.3c0 .9.7 1.7 1.6 1.7z"/><path d="M34 33.3c1.1 0 2-.9 2-2V31h-.7v.3c0 .7-.6 1.3-1.3 1.3-.7 0-1.3-.6-1.3-1.3V31H32v.3c0 1.2.9 2 2 2zM63.3 10.8l-.3-.3c-.6-.6-1.7-.6-2.3 0l-5.2 5.2c-.6.6-.6 1.7 0 2.3l.4.4c.6.6 1.7.6 2.3 0l5.2-5.2c.6-.7.6-1.7-.1-2.4zM71.9 35h-7.3c-.9 0-1.6.7-1.6 1.6v.5c0 .9.7 1.6 1.6 1.6h7.3c.9 0 1.6-.7 1.6-1.6v-.5c.1-.9-.7-1.6-1.6-1.6z"/></svg>