<svg xmlns="http://www.w3.org/2000/svg" width="139" height="152" viewBox="0 0 139 152"><title>Fill 50</title><path d="M137.74 133.37c.29 1.59.26 3.14.26 4.75v10.1c0 3.71-5.78 3.71-5.78 0v-8.16c0-2.73.58-6.01-1.59-7.88-1.5-1.29-3.46-1.07-5.45-1.07h-10.8v.55c0 1.56-1.31 2.87-2.89 2.87-1.57 0-2.89-1.31-2.89-2.87v-.55H95.64c-1.9 0-3.82 1.21-4.35 3.08-.35 1.21-.24 2.6-.24 3.93v10.1c0 3.71-5.77 3.71-5.77 0v-9.65c0-1.21-.12-2.5.04-3.7.43-3.37 2.12-6.62 5.28-8.23 2.77-1.41 5.53-1.28 8.51-1.28H123.02c2.49 0 5.63-.37 7.98.55 3.24 1.27 6.11 3.91 6.74 7.46zm-30.63-34.58c-1.07 1.15-3 1.07-4.09 0-1.14-1.14-1.06-2.92 0-4.06 1.66-1.79 3.72-3.04 6.03-3.82 1.48-.51 3.15.57 3.55 2.01.43 1.58-.53 3.03-2.02 3.53.02-.01-.74.3-.53.2-.16.07-.31.14-.46.22-.35.19-.7.39-1.03.61-.2.15-.28.2-.25.17-.12.1-.24.19-.35.3-.3.27-.58.55-.85.84zm-8.75-1.82c-2.05 5.38-1.01 11.5 3.22 15.54 3.96 3.78 10.26 5.26 15.35 2.96 5.29-2.39 8.69-7.28 8.76-13.07-.09-7.81-6.62-14.39-14.59-14.12-5.4.18-10.79 3.56-12.74 8.69zm-.34 20.09c-5.01-4.58-7.32-11.41-6.19-18.07 1.05-6.25 5.4-12.11 11.3-14.63 6.2-2.65 13.55-2.47 19.26 1.39 5.61 3.79 9 9.87 9.07 16.65-.08 7.54-4.51 15-11.61 18.03-7.33 3.13-15.87 2.09-21.83-3.37zm-12.47-22.7c.95 1.25.2 3.21-1.04 3.93-1.48.86-3 .22-3.95-1.03L68.68 81.63 57.46 97.26c-.92 1.27-2.5 1.88-3.95 1.03-1.27-.74-1.96-2.66-1.04-3.93 4.55-6.34 9.09-12.68 13.64-19.01 1.35-1.88 3.63-1.79 4.99 0 4.82 6.33 9.63 12.67 14.45 19.01zm-42.9-27.72v-9.65c0-1.21-.12-2.5.04-3.7.43-3.37 2.12-6.62 5.28-8.23 2.77-1.41 5.53-1.28 8.51-1.28H80.4c2.48 0 5.63-.37 7.98.55 3.23 1.27 6.1 3.9 6.74 7.46.28 1.6.25 3.14.25 4.75v10.1c0 3.71-5.78 3.71-5.78 0v-8.16c0-2.73.58-6.01-1.59-7.88-1.5-1.29-3.46-1.07-5.45-1.07H71.17v1.35c0 1.56-1.31 2.87-2.89 2.87-1.57 0-2.89-1.31-2.89-2.87v-1.35H53.02c-1.91 0-3.83 1.21-4.36 3.08-.35 1.21-.23 2.6-.23 3.93v10.1c0 3.71-5.78 3.71-5.78 0zm21.83-49.43c-1.07 1.15-3.01 1.08-4.08 0-1.15-1.14-1.07-2.91 0-4.06 1.65-1.79 3.72-3.03 6.01-3.82 1.5-.51 3.16.57 3.56 2.01.44 1.58-.53 3.02-2.02 3.53.02 0-.74.3-.53.2-.15.07-.31.14-.46.22-.35.19-.7.39-1.03.61-.165.123-.248.18-.25.178l-.35.292c-.3.27-.58.55-.85.84zm-8.75-1.82c-2.05 5.38-1.02 11.5 3.22 15.54 3.96 3.78 10.26 5.26 15.35 2.96 5.29-2.39 8.69-7.28 8.76-13.07-.09-7.81-6.62-14.39-14.59-14.12-5.4.18-10.79 3.56-12.74 8.69zm-.34 20.09c-5.01-4.58-7.32-11.41-6.19-18.07 1.05-6.25 5.4-12.11 11.3-14.63C66.7.13 74.05.31 79.76 4.17c5.61 3.79 9 9.87 9.07 16.65-.08 7.54-4.51 15-11.61 18.03-7.33 3.13-15.86 2.09-21.83-3.37zm-9.62 90.43c3.23 1.27 6.1 3.91 6.74 7.46.29 1.59.25 3.14.25 4.75v10.1c0 3.71-5.78 3.71-5.78 0v-8.16c0-2.73.59-6.01-1.58-7.88-1.51-1.29-3.46-1.07-5.46-1.07h-10.8v.55c0 1.56-1.31 2.87-2.89 2.87-1.57 0-2.89-1.31-2.89-2.87v-.55H10.41c-1.9 0-3.83 1.21-4.36 3.08-.34 1.21-.23 2.6-.23 3.93v10.1c0 3.71-5.78 3.71-5.78 0v-9.65c0-1.21-.11-2.5.04-3.7.43-3.37 2.12-6.62 5.28-8.23 2.77-1.41 5.53-1.28 8.51-1.28h23.92c2.48 0 5.63-.37 7.98.55zm-23.9-27.12c-1.07 1.15-3 1.07-4.08 0-1.15-1.14-1.07-2.92 0-4.06 1.66-1.79 3.72-3.04 6.02-3.82 1.49-.51 3.15.57 3.55 2.01.44 1.58-.53 3.03-2.02 3.53.02-.01-.73.3-.53.19-.15.08-.3.15-.46.23-.35.19-.7.39-1.03.61-.165.124-.248.18-.25.178-.117.097-.233.185-.35.292-.29.27-.58.55-.85.84zm-8.75-1.82c-2.05 5.38-1.01 11.5 3.22 15.54 3.96 3.78 10.27 5.26 15.36 2.96 5.28-2.39 8.69-7.28 8.75-13.07-.09-7.81-6.62-14.39-14.58-14.12-5.41.18-10.79 3.56-12.75 8.69zm-.34 20.09c-5.01-4.58-7.31-11.41-6.19-18.07 1.05-6.25 5.4-12.11 11.3-14.63 6.21-2.65 13.56-2.47 19.26 1.39 5.61 3.79 9 9.87 9.08 16.65-.09 7.54-4.52 15-11.62 18.03-7.33 3.13-15.86 2.09-21.83-3.37zm10.58 22.52c0-3.7 5.78-3.7 5.78 0v7.53c0 3.7-5.78 3.7-5.78 0v-7.53zm85.24 0c0-3.7 5.78-3.7 5.78 0v7.53c0 3.7-5.78 3.7-5.78 0v-7.53zM65.39 66.33c0 3.7 5.78 3.7 5.78 0v-7.52c0-3.71-5.78-3.71-5.78 0v7.52z" fill="#f6a623"/></svg>