<svg xmlns="http://www.w3.org/2000/svg" width="147" height="151" viewBox="0 0 147 151"><title>Fill 47</title><path d="M139.15 117.88c-.06-10.21-5.9-19.6-15.34-24.06-2.11-.99-5.61-2.05-7.89-2.3-3.11-.33-6.24-.24-8.97.37-5.76 1.29-10.65 4.07-14.57 8.52-7.67 8.72-8.77 22-2.31 31.9 6.35 9.73 18.78 14.44 30.09 11.01 11.19-3.39 18.92-13.78 18.99-25.44zm-54.24-24.5v5.97c1.25-1.85 2.68-3.57 4.3-5.13.3-.29.6-.56.91-.84zm-64.96-6.55h24.97V62.34H21.18c-.74 0-.58-.19-.99.24-.28.29-.32.34-.13.17-.2.35-.22.41-.08.2-.023.115-.046.212-.07.296.023-.07.04-.114.04-.076zm-.06-23.51l.02-.074-.02.074zm.17 56.98l-.015-.023.015.023zm-.015-.023c-.182-.288.287.296.385.413-.04-.08.55.02.35.02h24.14V93.38H19.95v26.47c0 .06.01.158-.05-.084.07.285.04.334.01.324.028.028.073.09.135.187zm-.145-.517v0zm31.61.95h26.82V93.38H51.51zm0-33.88h26.82V62.34H51.51zm58.37-22.71c0-.12-.01-.94.04-.88-.1-.26-.11-.35-.04-.26-.11-.17-.14-.24-.11-.23-.19-.153-.546-.424-.326-.31-.124-.067-.176-.102-.204-.13-.04.01-.12.01-.31-.02.3.05.17.05.13.05H84.91v24.49h16.27c2.64-.95 5.4-1.56 8.2-1.82v-4.76h-3.89c-4.25 0-4.25-6.56 0-6.56h4.39zm-.4-1.66l-.036-.02.036.02zm-95.76 71.88h69.94c-.8-1.37-1.51-2.81-2.11-4.31-.37-.91-.68-1.83-.96-2.76H21.26c-4.22 0-7.9-3.02-7.9-7.42v-56.6c0-4.35 3.59-7.46 7.82-7.46h87.66c4.3 0 7.63 3.35 7.63 7.62v10.28h3.38c4.25 0 4.25 6.56 0 6.56h-3.38v4.84c2.41.28 4.81.82 7.15 1.63V43.65c0-1.21.08-2.77-.1-3.64-.58-2.72-1.83-4.67-4.24-5.83-.73-.36-1.77-.62-2.79-.62h-5.46v6.82c0 .18-.01.35-.04.51-.27 2.63-1.74 5.1-4.27 6.16-1.42.6-2.8.7-4.31.7-2.37 0-4.78.11-7.15 0-4.3-.19-7.41-3.45-7.41-7.73v-6.46H42.64v6.82c0 .18-.01.35-.04.51-.27 2.63-1.74 5.1-4.27 6.16-1.42.6-2.8.7-4.3.7-2.38 0-4.78.11-7.16 0-4.3-.19-7.41-3.45-7.41-7.73v-6.46h-3.63c-.94 0-1.91-.06-2.85.02-.41.04-.48.05-.19.02-.23.05-.46.1-.69.16-.29.08-.58.17-.86.27 0 .02-.616.31-.62.31-.31.17-.61.35-.89.55-.28.19-.73.59-1.18 1.1-.24.28-.6.75-.93 1.36-.66 1.23-1.03 2.72-1.03 4.22v84.85c0 .97.01 1.28.27 2.2.19.68.39 1.25.59 1.61.17.31.34.63.54.93.016.02.553.713.39.54.29.33.59.66.92.95.17.15.24.22.26.25.05.03.1.06.17.11.29.19.58.39.89.55-.01-.006.988.44.48.26 1.17.42 1.55.52 2.62.52zm-3.1-.78zm-2.63-2.4c0-.002 0-.002 0 0zm2.63-96.82zM26.158 7.994c-.247.464-.108.167-.108.656V40.3c0 .13-.05.03-.09-.07.02.08.06.19.12.37-.13-.39.17.21.07.18.192.144.57.437.34.325.12.06.182.097.21.125.023-.008.082-.01.194.004-.157-.027-.008-.034.026-.034h6.68c.532 0 1.073.02 1.606 0-.42.013.536-.166.124.05.26-.13.31-.12.31-.1.03-.03.08-.09.17-.19l.2-.2c0-.02.02-.08.05-.17v-.02c-.09.14-.02-.41-.01-.32V8.65c0-.75-.34-1.06-1-1.06h-8c-.22 0-.14-.05-.08-.08-.036.018-.11.044-.26.09.262-.076-.268.184-.24.09-.16.19-.467.597-.312.304zm.492-.374l.06-.02-.06.02zm8.58 33.58h-.024.024zm-8.22.05l-.116-.016c.028.005.066.01.116.016zm-.55-.16l.03.015-.03-.015zM94.548 7.994c-.247.464-.108.167-.108.656V40.3c0 .13-.06.03-.09-.07.02.08.06.19.12.37-.13-.39.17.21.07.18.193.145.574.44.336.323.122.062.177.1.214.127.024-.008.08-.01.204.005-.173-.028-.02-.035.016-.035h6.68c.533 0 1.076.02 1.61 0-.44.014.534-.167.12.05.26-.13.31-.12.31-.1.03-.03.08-.09.17-.19.1-.11.16-.17.2-.2 0-.02.02-.08.05-.17v-.02c-.1.14-.02-.41-.01-.32V8.65c0-.75-.34-1.06-1-1.06h-8c-.22 0-.14-.05-.08-.08-.04.02-.14.05-.32.11.39-.13-.21.17-.18.07-.16.19-.467.597-.312.304zM103.62 41.2h-.02.02zm-8.22.05l-.106-.015c.027.005.062.01.106.015zm-.55-.16l.026.013-.026-.013zm-.3-33.1s0 .003-.002.004c0 0 0-.003.002-.004zm45.44 87.61l-1.61 1.6c4.63 5.79 7.32 13.1 7.36 20.68-.05 8.82-3.59 17.52-10 23.67-6.38 6.13-15.12 9.71-24.04 9.43-8.85-.27-17.06-4-23.03-10.08H15.58c-1.41 0-2.78.01-4.19-.22C4.64 139.54 0 133.08 0 126.46V41.69c0-5 2.35-9.96 6.69-12.66 3.93-2.43 8.38-2.04 12.77-2.03V8.48c0-3.18 2.21-6.45 5.44-7.18 1.82-.42 3.75-.27 5.61-.27 1.57 0 3.15-.07 4.72 0 4.02.18 7.41 3.24 7.41 7.38V27h45.21V8.48c0-3.18 2.21-6.45 5.44-7.18 1.82-.42 3.75-.27 5.61-.27 1.57 0 3.15-.07 4.72 0 4.02.18 7.41 3.24 7.41 7.38V27c4.45-.01 9.31-.46 13.06 2.43 3.95 3.04 6.12 7.34 6.12 12.33v48.12c1.26.79 2.46 1.66 3.59 2.61.51-.51 1.02-1.02 1.53-1.52l-.41-.41c-1.27-1.26-1.27-3.37 0-4.63 1.27-1.27 3.39-1.27 4.66 0 1.82 1.81 3.65 3.62 5.47 5.44 1.27 1.26 1.27 3.37 0 4.64-1.27 1.26-3.39 1.26-4.66 0zm-30.8 20.67c0 4.23 6.58 4.23 6.58 0v-16.14c0-4.23-6.58-4.23-6.58 0z" fill="#ef5129"/></svg>