<svg xmlns="http://www.w3.org/2000/svg" width="138" height="152" viewBox="0 0 138 152"><title>Fill 47</title><path d="M90.15 27.13c-3.49-2.52-8.01-2.66-11.69-.66-4.67-5.33-11.33-7.53-17.73-4.98-5.63 2.25-9.67 7.72-11.2 14.31-5.35-.47-10.71 1.91-14.37 6.79-4.17 5.55-5.54 13.61-3.43 20.63 2.05 6.86 7.14 12.14 13.19 13.43 3.52.75 7.3.37 10.85.37h3.5l18.48-.03 7.05-.01c3.44 0 7 .31 10.37-.69 7.57-2.24 12.79-10.68 12.88-19.81.09-8.85-5.02-16.88-11.97-19.62-.79-4.04-2.85-7.49-5.93-9.73zm10.1 36.56c-1.12 2.14-3.22 4.19-5.1 5.09-3.17 1.51-6.71 1.04-10.32 1.04-2.14 0-4.27.01-6.41.01-6.38.01-12.77.02-19.15.02H48.38c-.81 0-1.75-.08-2.19-.18-2.61-.56-4.54-1.88-6.33-4.05-3.43-4.17-4-10.81-1.66-15.86 2.47-5.32 7.65-8.05 12.94-6.43 2.01.62 3.66-1.13 3.81-3.45.37-5.35 3.65-10.11 8.03-11.73 2.35-.86 4.83-.74 7.35.29.99.41 2.29 1.33 3.09 2.11 1.09 1.07 1.83 2.78 3.02 3.49.91.54 2.15.76 3.05 0 1.16-.99 2.38-1.67 3.83-1.79 1.36-.1 2.45.23 3.5.88 2.15 1.32 3.45 3.9 3.57 6.58.07 1.52.86 3.12 2.21 3.46 5.11 1.24 8.95 6.09 9.38 12.03.13 1.69.01 3.01-.25 4.35-.34 1.76-.69 2.61-1.48 4.14zM6.03 86.92V13.68c0-1.27-.05-2.66.15-3.51.27-1.16 1.31-1.97 2.3-1.97h120.71c.78 0 1.6.47 1.96 1.06.5.82.56 1.3.56 2.32v75.34zm123.26 23.52H8.45c-.094 0-.188-.006-.282-.01.25-.006-.58-.17-.588-.17.21.13.15.1-.17-.11-.2-.12-.38-.26-.55-.41.29.24-.09-.19-.27-.38.03-.01-.17-.37-.28-.55.02-.04-.23-.74-.22-.73-.04-.14-.06-.22-.07-.28.01-.03.02-.13.01-.39V94.08h125.68v13.33c-.05 1.71-1.08 3.03-2.42 3.03zm-121.122-.01c-.02.002-.045 0-.078 0h.078zm79.702 28.72c.083.06.17.11.265.155-1.012-.48-.136-.05.175.135.22.13.43.28.64.43.03.01.1.08.18.15v3.69c-.13.03-.28.1-.11.1H48.73c.12 0 0-.05-.12-.08V140c.13-.1.26-.19.4-.29.33-.24.69-.44 1.05-.63-1.47.77.83-.49 1.13-.68 1.52-.93 3.04-1.86 4.55-2.79 1.47-.9 1.54-2.58 1.78-4.23.62-4.21 1.23-8.43 1.85-12.64h17.96c.6 4.08 1.19 8.16 1.79 12.23.11.78.23 1.56.34 2.33.22 1.53 1.24 2.16 2.27 2.7 1.93 1 3.85 1.99 5.78 2.99.11.06.24.12.36.16zm.265.155l.095.045-.095-.045zM124.78 1.03H9.4c-1.98 0-3.89.32-5.59 1.68C1.04 4.93 0 8.5 0 12.3v95.08c0 5.6 3.85 10.22 8.56 10.22h44.88c-.61 4.16-1.21 8.33-1.82 12.49-.97.59-1.94 1.19-2.91 1.78l-.854.525c-.028.012-.802.47-1.116.645-.5.28-.98.62-1.44.99-1.45 1.2-2.53 2.73-2.7 4.89-.07.85-.02 1.72-.02 2.58 0 3.19.09 6.33 2.66 8.26 2.02 1.52 4.44 1.21 6.72 1.21H84.7c1.56 0 3.13.08 4.69-.02 3.51-.21 5.77-3.55 5.77-7.55 0-2.27.34-5.01-.71-7.02-.88-1.69-2.38-2.76-3.88-3.56l-5.51-2.86-1.8-12.36h46.04c4.63 0 8.11-4.48 8.42-9.76.01-.14.02-95.25.02-95.25 0-3.2-.57-6.1-2.47-8.57-2.74-3.55-6.85-2.99-10.49-2.99z" fill="#0199b1"/></svg>