<svg xmlns="http://www.w3.org/2000/svg" viewBox="0 0 82.3 96.2"><path d="M61.9 60.3H59c-1.1 0-2 .9-2 2s.9 2 2 2h2.9c1.1 0 2-.9 2-2s-.9-2-2-2zM49.2 71.9c0-1.1-.9-2-2-2h-36c-1.1 0-2 .9-2 2s.9 2 2 2h36c1.1 0 2-.9 2-2zM61.9 50.3H49.2c-1.1 0-2 .9-2 2s.9 2 2 2h12.7c1.1 0 2-.9 2-2s-.9-2-2-2zM61.9 39.9H11.3c-1.1 0-2 .9-2 2s.9 2 2 2h50.6c1.1 0 2-.9 2-2s-.9-2-2-2z"/><path d="M36 89.8H4V4h46.6l14.8 15.9H53.5v-8c0-1.1-.9-2-2-2s-2 .9-2 2V20c0 2.1 1.7 3.8 3.8 3.8h16.1c.6 0 1.1-.2 1.6-.6.9-.9 1-2.3.1-3.2L53.5 1.2C52.8.5 51.8 0 50.7 0H3.8C1.7 0 0 1.7 0 3.8v86.1c0 2.1 1.7 3.8 3.8 3.8H36c1.1 0 2-.9 2-2s-.9-1.9-2-1.9zM69.5 32.3v21.5c0 1.1.9 2 2 2s2-.9 2-2V32.3c0-1.1-.9-2-2-2s-2 .9-2 2zM73.2 73.8l-.3-.3c-.8-.7-2-.7-2.8 0l-.3.3c-.1.2-.2.5-.3.7v.4c0 .5.2 1 .6 1.4.4.4.9.6 1.4.6h.4c1.1-.2 1.7-1.3 1.5-2.3 0-.1-.1-.3-.1-.4 0-.2-.1-.3-.1-.4zM67.6 89.8H54.5c-1.1 0-2 .9-2 2s.9 2 2 2h13.1c1.1 0 2-.9 2-2s-.9-2-2-2z"/><path d="M11.3 79.9c-1.1 0-2 .9-2 2s.9 2 2 2h20.5c1.1 0 2-.9 2-2s-.9-2-2-2H11.3zM81.4 91L65.3 74.9l16.1-16.1c1.2-1.2 1.2-3 0-4.2-1.1-1.2-3-1.2-4.2 0L61 70.7 44.9 54.5c-1.1-1.2-3-1.2-4.2 0-1.2 1.2-1.2 3.1 0 4.2l16.1 16.1L40.7 91c-1.1 1.2-1.1 3.1.1 4.2 1.2 1.1 2.9 1.1 4.1 0l16.1-16 16.1 16.1c1.1 1.2 3 1.2 4.2 0 1.3-1.2 1.3-3.1.1-4.3 0 .1 0 .1 0 0zM11.8 34.3H32c1.1 0 2-.9 2-2s-.9-2-2-2H11.8c-1.1 0-2 .9-2 2s.9 2 2 2z"/><path d="M37.7 60.3H11.3c-1.1 0-2 .9-2 2s.9 2 2 2h26.4c1.1 0 2-.9 2-2s-.9-2-2-2zM11.3 54.3h23.8c1.1 0 2-.9 2-2s-.9-2-2-2H11.3c-1.1 0-2 .9-2 2s.8 2 2 2z"/></svg>