<svg xmlns="http://www.w3.org/2000/svg" viewBox="0 0 78.4 78.1"><path d="M68.1 57.2c-3.3 0-6.3 1.6-8.3 4.1L37.5 49.1V28.8l22-12.5c1.9 2.7 5 4.4 8.4 4.4 5.7 0 10.3-4.6 10.3-10.3S73.7 0 68 0c-5.7 0-10.3 4.6-10.3 10.3 0 1.1.2 2.2.5 3.3L35.5 26.4l-15.8-9.2c-.5-.3-1.1-.3-1.6 0L.8 27.3l-.3.2c-.2.2-.3.3-.3.5-.2.1-.2.3-.2.4v20.3c0 .6.3 1.1.8 1.4l17.3 10c.3.2.5.2.8.2.3 0 .5 0 .8-.2L35 51.4l23.4 12.8c-.4 1.1-.7 2.4-.6 3.6 0 5.7 4.6 10.3 10.3 10.3 5.7 0 10.3-4.6 10.3-10.3 0-5.9-4.5-10.6-10.3-10.6zm-.2-54.1h.2c4 0 7.2 3.2 7.2 7.1v.1c0 4-3.2 7.2-7.1 7.2-3.9 0-7.1-3.2-7.2-7.2-.1-3.9 3-7.1 6.9-7.2zM17.3 55.8L3.1 47.7V31.4l14.2 8.1v16.3zm1.6-19.1L4.7 28.6l14.2-8.1 14.2 8.1-14.2 8.1zm15.8 11.1l-14.2 8V39.5l14.2-8.1v16.4zm33.4 27c-4 0-7.2-3.2-7.2-7.1 0-4 3.2-7.2 7.1-7.2 3.9 0 7.2 3.3 7.2 7.2.1 3.9-3 7.1-7.1 7.1z"/></svg>