<svg xmlns="http://www.w3.org/2000/svg" viewBox="0 0 100.1 98.9"><path d="M59.9 0v1.3c0 .3 0 .7.1 1.1v.1c0 .4 0 .9.1 1.3V4c.3 4.2.7 9.9-2.3 12.5-1.6 1.4-2.1.9-2.8.1-.5-.7-1.2-1.1-2.1-1.4-2.3-.5-4.1 2-4.7 3.8-.5 1.4-.4 2.9.2 4.3.3.6.9 1.1 1.6 1.2h.1c1.1.1 2.2-.1 3.1-.6 1.1-.6 2.4-.7 3.5-.4-.4 3.4-1.2 6.7-2.4 9.9-.4 1.3-.9 2.6-1.2 3.8-.2.6-.4 1.2-.6 1.9l-.3 1.1 2.7.9c1.1.4 2.2.8 3.3 1.1 1.3.4 2.5.8 3.8 1.2 3 1.1 6 1.9 9.2 2.4l1.1.2v-1.2c0-1-.2-2-.7-2.9-.5-.9-.6-2-.5-2.9.1-.6.5-1.1 1.1-1.4.2-.1.4-.2.6-.2l.2-.1c.5-.3 1-.3 1.5-.3h.1l.8.1 1 .2c2.2.7 4.1 2.4 3.7 4.4-.2.7-.6 1.4-1.3 1.9-1.3 1.2-1 1.9.1 3.1 1.8 2.1 5 2.6 8.2 2.6 1.6 0 3.2-.1 4.6-.2l1.1-.1h1.5l5.8-43.5L59.9 0zm32.6 46.9l-1 .1c-3.6.3-9.1.7-11.1-1.7l-.3-.3c.9-.7 1.6-1.8 1.9-2.9.7-3.2-2-5.8-5-6.8l-1.4-.3-1-.1h-.2c-.7 0-1.3.1-2 .3l-.2.1c-.4.1-.7.2-1 .4-1.1.6-1.8 1.6-2.1 2.8-.2 1.4 0 2.9.6 4.2l.3.9c-2.5-.4-5-1.1-7.5-2.1-1.3-.4-2.6-.9-3.9-1.3-1.1-.3-2.2-.7-3.2-1.1l-.8-.3c.1-.4.2-.7.3-1.1.4-1.3.8-2.5 1.2-3.7 1.3-3.3 2.1-6.9 2.5-10.5l.1-1.5-1.5-.5c-1.7-.5-3.5-.3-5.1.5-.6.3-1.2.4-1.9.4-.1 0-.2-.1-.2-.1-.4-.9-.4-1.9-.1-2.8.4-1.3 1.5-2.7 2.3-2.5.4.1.7.3 1 .7 1.1 1.2 2.8 2.5 5.6.1 3.7-3.2 3.3-9.5 3-14.1v-.2c.2-.3.2-.7.2-1v-.2l35.9 4.8-5.4 39.8z"/><path d="M86 57.8l-1.5.3-4.5.8-4.4.1-1.2-.2h-.3l-1.2-.5c-.1-.1-.3-.2-.4-.3h-.3c-.2-.1-.4-.3-.6-.4-1.6-1.4-1.2-1.9-.5-2.7.6-.6 1-1.3 1.1-2.2.2-2.4-2.6-3.8-4.4-4.1-1.4-.3-2.9 0-4.2.8-.6.4-1 1-1 1.7v.2c0 1.1.4 2.1 1 3 .7 1 1 2.2.9 3.4-3.3.1-6.7-.3-10-1-1.2-.2-2.5-.5-4-.7-1.1-.2-2.2-.4-3.2-.6l-2.8-.6-.4 1.1-.2 1.1-.6 3c-.1.5-.1 1-.1 1.7v.2c-.2 4.6.1 6.4.5 7.2l.6.6h.1c-1 .3-1.8.4-2.5-.3-1.1-1-.9-5.2-.7-7.5v-.3c0-.4 0-.9.1-1.3V60v-.2-.3l.5-2.9.4-2-2-.1-.8-.1H38c-5.7-.3-7 .3-7.6.8-.3-1-.4-1.8.3-2.5 1-1.1 5.3-.9 7.4-.8h.3c.3 0 .7 0 1 .1h.6c.2 0 .5 0 .8.1.1 0 .3.1.5.1h1.1l.1-1c.1-.6.3-1.3.4-1.9.2-1.2.4-2.4.6-3.5l.1-.4c.7-3.1 1.1-6.2 1.1-9.4v-1.1l-1.1.1c-1 .1-1.9.5-2.8 1-.9.6-1.9.9-2.8.8-.6-.1-1.2-.4-1.5-.8-.8-1.2-1.1-2.7-.8-4.1.4-2.2 1.9-4.4 3.9-4.2.8.1 1.5.4 2.1 1 1.3 1.1 2 .7 3.1-.5 2.7-3.2 1.5-8.9.6-13l-.6-3.7H.1v43.4h1l5.9-.6c3.4-.4 6.8-.7 10.2-.7 1.5 0 2.7 0 3.1.5.4.6.5 1.3.3 1.9v.1c0 .1-.1.2-.1.3l-.5-.2c-1-.3-2-.4-2.9-.3-3.4.1-6.9.3-10.3.7-.5 0-1 .1-1.5.2-.7.1-1.5.2-2.2.2l-2.1.3H.6l-.6.6v41h44.2l-.2-1.2c-.1-.3-.1-.7-.1-.9l-.4-3.7c-.4-3.4-.7-6.8-.7-10.2 0-1.5 0-2.7.5-3.1.6-.4 1.3-.5 1.9-.3h.1l-.1.3c-.3 1-.4 2-.3 2.9.1 3.4.3 6.8.7 10.2l.1 1c.1.9.2 1.8.3 2.6 0 .2 0 .5.1.7v1.5h41v-40l-.1-1h-1zm-68.8-6.4c-3.5.1-7 .3-10.4.8l-4.5.5h-.2V13.4H43l.3 2.1c.8 3.6 1.9 8.9-.1 11.3l-.3.3c-.9-.8-2-1.3-3.1-1.5-3.2-.3-5.5 2.7-6.1 5.8-.4 1.9 0 3.9 1.1 5.6.7 1 1.8 1.6 3 1.7 1.5 0 2.9-.4 4.1-1.2.3-.2.5-.3.8-.4-.1 2.6-.5 5.1-1 7.7l-.1.4c-.2 1.2-.5 2.4-.7 3.6-.1.4-.1.7-.2 1.1h-1.1c-.4 0-.8-.1-1.2-.1h-.2c-3.9-.2-7.5-.2-9 1.4-1.6 1.7-.9 3.8-.5 5l.1.1c.2.5.3 1 .2 1.6-.5.8-2 .6-4.2.2-.9-.1-1.7-.4-2.5-.7.2-.3.3-.7.3-1 .3-1.2.1-2.5-.6-3.6v-.2c-1.1-1.2-2.7-1.2-4.8-1.2zm2.6 8.8c0-.2.1-.3.1-.3.4-.2.6-.6.7-1.1l.2.1c1.2.6 2.4 1 3.6 1.2.8.2 1.9.4 2.9.4 1.3 0 2.5-.3 3.2-1.4.2.8.2 1.6-.1 2.3-.1.1-.2.3-.2.4l-.3.2-.7.4-.5.2c-.1 0-.3.1-.4.1l-.5.1h-1.4l-.6-.1-1.4-.2c-.9-.2-3-.6-3.7-1.3-.7-.6-.8-.8-.9-1zm25.8 17.4c-1.2-.3-2.5-.1-3.6.6l-.1.1c-1.2 1-1.2 2.7-1.2 4.7.1 3.5.3 7 .8 10.4l.4 3.6H2V59.1l1.4-.2c.7-.1 1.5-.1 2.2-.2l1.5-.2c3.3-.4 6.7-.6 10.2-.7.5-.1 1 0 1.6.1v.4c-.3.2-.5.6-.7.9H18v1c0 1.1.7 1.8 1.5 2.6 1.1 1 3 1.4 4.7 1.7l.6.1 1.7.2h1.6l.7-.1c.2 0 .3-.1.5-.1h.2l.6-.2.6-.3.6-.4.7-.7c.2-.2.3-.5.5-.8.6-1.5.6-3-.1-4.5-.2-.6-.2-1-.2-1.1.4-.1 1.8-.4 6-.2H38.8c.3 0 .5.1.8.1h.4l-.5 3c0 .2-.1.4-.1.6v.2c-.1.5-.1 1-.1 1.5v.2c-.2 4.1-.2 7.6 1.4 9.1 1.7 1.6 3.8.9 5 .5l.1-.1c.5-.2 1-.3 1.6-.2.8.5.6 2 .2 4.1-.1.9-.4 1.7-.7 2.5-.6-.2-.9-.3-1.3-.3zM85 96.8H48v-.3l-.3-2.7-.1-1c-.4-3.3-.7-6.7-.7-10.1-.1-.5 0-1 .1-1.6h.3c.4.6 1.1.9 1.9.9 1.1 0 1.8-.7 2.6-1.5 1-1.1 1.4-3 1.7-4.7.4-1.9 1.1-5.7-1.6-7.7l-.7-.5h-.1c-1.5-.6-3.1-.5-4.5.1-.6.2-1 .2-1.1.2-.1-.4-.4-1.7-.2-6v-.2c0-.5.1-1 .1-1.5l.2-1.5.3-1.8 1.1.2 3.3.6c1.4.2 2.7.5 3.9.7 3.5.8 7.1 1.2 10.6 1.1h1.5l.3-1.6c.2-1.7-.2-3.5-1.2-5-.4-.5-.6-1.2-.6-1.8 0-.1.1-.2.1-.2.8-.5 1.8-.7 2.7-.5 1.4.2 2.8 1.1 2.7 1.9-.1.4-.3.8-.6 1.1l-.1.1c-1.1 1.3-2 3.2.7 5.5.2.2.5.4.8.6l.2.1.6.3 1.6.6 1.8.3H79l1.1-.1L85 60v36.8zM48 69.4l.3-.1c.7-.1 1.3 0 1.9.2 2 1.1 1.7 3.7 1.2 6-.2 1-.6 3-1.3 3.7-.8.9-.9.9-1 .9-.1 0-.3-.1-.3-.2l-.6-.6v-.1c.6-1.1 1-2.4 1.2-3.6.3-1.8 1-5-1.4-6.2z"/></svg>