<svg xmlns="http://www.w3.org/2000/svg" viewBox="0 0 89.6 83.5"><path d="M65.9 18c4.6 0 7.9-3.6 7.9-8.5S70.5 1 65.9 1 58 4.6 58 9.5s3.3 8.5 7.9 8.5zM23.9 18c4.6 0 7.9-3.6 7.9-8.5S28.5 1 23.9 1 16 4.6 16 9.5s3.3 8.5 7.9 8.5z"/><path d="M86.6 0c-1.7 0-3 1.3-3 3 0 12.3-7.2 20.5-17.9 20.5S47.8 15.3 47.8 3c0-1.7-1.3-3-3-3s-3 1.3-3 3c0 12.3-7.2 20.5-17.9 20.5S6 15.3 6 3c0-1.7-1.3-3-3-3S0 1.3 0 3c0 11.5 5.3 20.4 13.8 24.3v53.2c0 1.7 1.3 3 3 3s3-1.3 3-3v-27c.2-2.1 2-3.6 4-3.5 1.9.1 3.3 1.6 3.5 3.5v27c0 1.7 1.3 3 3 3s3-1.3 3-3V27.7c5.1-2.2 9.2-6.1 11.5-11 2.2 4.7 6 8.5 10.8 10.7v53.2c0 1.7 1.3 3 3 3s3-1.3 3-3v-27c0-2.1 1.7-3.8 3.8-3.8 2.1 0 3.8 1.7 3.8 3.8v27c0 1.7 1.3 3 3 3s3-1.3 3-3V27.7C83.9 24 89.6 14.8 89.6 3c0-1.7-1.4-3-3-3z"/></svg>