<svg xmlns="http://www.w3.org/2000/svg" viewBox="0 0 62.1 60.8"><path d="M45.1 20.3l-4.6-4.6c-.6-.6-1.5-.6-2.1 0L.5 53.7c-.6.6-.6 1.5 0 2.1l4.6 4.6c.6.6 1.5.6 2.1 0l38-38c.5-.6.5-1.5-.1-2.1zm-39 36.9l-2.5-2.5 28.8-28.9 2.5 2.5L6.1 57.2zm30.9-31l-2.5-2.5 4.8-4.8 2.5 2.5-4.8 4.8zM27.8 13.4l1.6-.1c.2 0 .4.1.5.3l.7 1.5c.1.2.3.3.5.3s.4-.2.5-.4l.4-1.6c.1-.2.3-.4.5-.4l1.6-.2c.2 0 .4-.2.5-.4.1-.2 0-.5-.3-.6L33 11c-.2-.1-.3-.4-.2-.6l.3-1.6c0-.2 0-.5-.3-.6-.2-.1-.5-.1-.6.1l-1.2 1c-.2.2-.4.2-.6 0L29 8.5c-.2-.1-.5-.1-.6.1-.2.1-.2.4-.1.6l.6 1.5c.1.2 0 .5-.1.6l-1.2 1.1c-.2.2-.2.4-.1.6-.1.3.1.4.3.4zM61.9 24.1l-1.4-.9c-.2-.1-.3-.3-.3-.6l.3-1.6c0-.2-.1-.5-.3-.6-.2-.1-.5-.1-.6 0l-1.2 1c-.2.2-.4.2-.6 0l-1.4-.8c-.2-.1-.5-.1-.6.1-.2.2-.2.4-.1.6l.6 1.5c.1.2 0 .5-.1.6L55 24.5c-.2.2-.2.4-.1.6.1.2.3.4.5.3l1.6-.1c.2 0 .4.1.5.3l.7 1.5c.1.2.3.3.5.3s.4-.2.5-.4l.4-1.6c.1-.2.3-.3.5-.3l1.6-.2c.2 0 .4-.2.5-.4 0-.1-.1-.3-.3-.4zM51.9 6.3c-.2-.3-.2-.7 0-1l1.4-2.2c.3-.4.2-.9-.3-1.2-.2-.1-.5-.2-.8-.1l-2.5.8c-.4.1-.8 0-1-.3l-1.6-2c-.2-.3-.8-.4-1.1-.1-.2.2-.3.4-.3.7v2.6c0 .4-.2.7-.6.8l-2.4.9c-.5.2-.7.7-.5 1.1.1.3.3.5.6.5l2.5.8c.3.1.6.4.6.8L46 11c0 .4.3.7.6.8.4.1.7 0 .9-.3L49 9.4c.3-.3.7-.5 1-.4l2.5.7c.4.1.8 0 1-.4.2-.3.2-.7 0-1l-1.6-2zM49.5 36.1c-.2-.2-.2-.4-.1-.6L50 34c.1-.2 0-.5-.2-.6-.2-.2-.4-.2-.6 0l-1.4.8c-.2.1-.4.1-.6 0l-1.2-1c-.2-.1-.4-.2-.6 0-.2.1-.3.4-.3.6l.3 1.6c0 .2 0 .4-.2.6l-1.3.9c-.2.1-.3.4-.3.6.1.2.3.4.5.4l1.6.2c.2 0 .4.2.5.4l.4 1.6c.1.2.3.4.5.4s.4-.1.5-.3l.7-1.5c.1-.2.3-.4.6-.4l1.6.1c.2 0 .4-.1.5-.3.1-.2 0-.5-.1-.6l-1.4-1.4z"/></svg>